<mxfile host="app.diagrams.net" modified="2023-10-19T16:45:19.484Z" agent="Mozilla/5.0 (Macintosh; Intel Mac OS X 10_15_7) AppleWebKit/537.36 (KHTML, like Gecko) Chrome/118.0.0.0 Safari/537.36" version="22.0.5" etag="fHdhfO5uNJZm-BLuJfgQ" type="github">
  <diagram name="Page-1" id="qUv21SvopEvs1d1xOYYQ">
    <mxGraphModel>
      <root>
        <mxCell id="0" />
        <mxCell id="1" parent="0" />
      </root>
    </mxGraphModel>
  </diagram>
</mxfile>
